<?xml version="1.0" standalone="no"?><!DOCTYPE svg PUBLIC "-//W3C//DTD SVG 1.1//EN" "http://www.w3.org/Graphics/SVG/1.1/DTD/svg11.dtd"><svg t="1660221329683" class="icon" viewBox="0 0 1024 1024" version="1.1" xmlns="http://www.w3.org/2000/svg" p-id="11044" xmlns:xlink="http://www.w3.org/1999/xlink" width="48" height="48"><defs><style type="text/css"></style></defs><path d="M846.1 177.2c-68-67.9-311.1-5.5-440.7 124.2-15.6 15.6-28.9 31.1-40.5 46.6l-73-23.5c-6.7-2.2-14.1 0.3-18.2 6.1l-112.8 161c-6.2 8.9-2.1 21.3 8.3 24.6L323 565.9c11.4 29.4 29.6 56.6 53.7 80.7 24 24 51.1 42.1 80.4 53.5l49.6 153.7c3.3 10.3 15.6 14.4 24.4 8.2l161.4-113c5.8-4 8.2-11.4 6.1-18.1l-23.4-72.4c15.5-11.6 31.1-25 46.8-40.7 129.5-129.6 194.9-369.9 124.1-440.6zM614 410.3c-39.9-39.9-39.9-104.5 0-144.4 39.9-39.9 104.5-39.9 144.4 0 39.9 39.9 39.9 104.5 0 144.4-39.9 39.8-104.5 39.8-144.4 0z" fill="#000000" p-id="11045"></path><path d="M345.5 677.8c-25.2-25.2-41.3-49.9-79.5-11.7S181.9 791 207.1 816.2c25.2 25.2 111.9-20.7 150.1-58.9s13.5-54.4-11.7-79.5z" fill="#000000" p-id="11046"></path></svg>