<?xml version="1.0" standalone="no"?><!DOCTYPE svg PUBLIC "-//W3C//DTD SVG 1.1//EN" "http://www.w3.org/Graphics/SVG/1.1/DTD/svg11.dtd"><svg t="1660221378375" class="icon" viewBox="0 0 1024 1024" version="1.1" xmlns="http://www.w3.org/2000/svg" p-id="12777" xmlns:xlink="http://www.w3.org/1999/xlink" width="48" height="48"><defs><style type="text/css"></style></defs><path d="M272.72287 559.876404c26.436092 0 47.811936-21.441335 47.811936-47.877427 0-26.414603-21.375843-47.855938-47.811936-47.855938-26.480094 0-47.89994 21.441335-47.89994 47.855938C224.82293 538.435069 246.242775 559.876404 272.72287 559.876404L272.72287 559.876404zM272.72287 559.876404" p-id="12778" fill="#000000"></path><path d="M432.211281 559.876404c26.479071 0 47.898917-21.441335 47.898917-47.877427 0-26.414603-21.419845-47.855938-47.898917-47.855938-26.436092 0-47.855938 21.441335-47.855938 47.855938C384.356366 538.435069 405.775188 559.876404 432.211281 559.876404L432.211281 559.876404zM432.211281 559.876404" p-id="12779" fill="#000000"></path><path d="M591.787696 559.876404c26.436092 0 47.855938-21.441335 47.855938-47.877427 0-26.414603-21.419845-47.855938-47.855938-47.855938-26.479071 0-47.898917 21.441335-47.898917 47.855938C543.888779 538.435069 565.308625 559.876404 591.787696 559.876404L591.787696 559.876404zM591.787696 559.876404" p-id="12780" fill="#000000"></path><path d="M767.243777 256.734222 97.179808 256.734222c0 0-31.889291 0-31.889291 31.91078l0 446.711018c0 31.91078 31.889291 31.91078 31.889291 31.91078l95.710852 0 0 159.53139 159.575392-159.53139 414.776701 0c0 0 31.93227 0 31.93227-31.91078L799.175023 288.645003C799.176047 256.734222 767.243777 256.734222 767.243777 256.734222L767.243777 256.734222zM735.353462 703.443194 326.02996 703.443194l-18.671245 18.693758-50.603515 50.626028 0-69.318762L129.112078 703.444217 129.112078 320.556806l606.242408 0L735.354486 703.443194 735.353462 703.443194zM735.353462 703.443194" p-id="12781" fill="#000000"></path><path d="M926.820192 97.201809 256.7552 97.201809c0 0-31.93227 0-31.93227 31.91078l0 95.710852 63.821561 0 0-63.800072 606.242408 0 0 382.88741-63.821561 0 0 63.820538 95.754854 0c0 0 31.888268 0 31.888268-31.91078L958.70846 129.11259C958.70846 97.201809 926.820192 97.201809 926.820192 97.201809L926.820192 97.201809zM926.820192 97.201809" p-id="12782" fill="#000000"></path></svg>