<svg xmlns="http://www.w3.org/2000/svg" viewBox="0 0 48 48"><path d="M16 3L16 8L21 8L21 3L16 3 z M 35 3L35 8L40 8L40 3L35 3 z M 7 8L7 13L12 13L12 8L7 8 z M 26 8L26 13L31 13L31 8L26 8 z M 16 13L16 18L21 18L21 13L16 13 z M 35 13L35 18L40 18L40 13L35 13 z M 7 18L7 23L12 23L12 18L7 18 z M 26 18L26 23L31 23L31 18L26 18 z M 3.5 27 A 1.50015 1.50015 0 0 0 2 28.5L2 40.5 A 1.50015 1.50015 0 0 0 3.5 42L44.5 42 A 1.50015 1.50015 0 0 0 46 40.5L46 28.5 A 1.50015 1.50015 0 0 0 44.5 27L3.5 27 z M 5 30L43 30L43 39L5 39L5 30 z M 7 32L7 37L11 37L11 32L7 32 z M 13 32L13 37L17 37L17 32L13 32 z M 19 32L19 37L23 37L23 32L19 32 z M 25 32L25 37L29 37L29 32L25 32 z"/></svg>