<?xml version="1.0" standalone="no"?><!DOCTYPE svg PUBLIC "-//W3C//DTD SVG 1.1//EN" "http://www.w3.org/Graphics/SVG/1.1/DTD/svg11.dtd"><svg t="1659851169406" class="icon" viewBox="0 0 1024 1024" version="1.1" xmlns="http://www.w3.org/2000/svg" p-id="15021" xmlns:xlink="http://www.w3.org/1999/xlink" width="48" height="48"><defs><style type="text/css"></style></defs><path d="M429.482667 532.949333L124.330667 838.101333l61.568 61.568 305.152-305.152-61.568-61.568z m60.352-60.352l61.568 61.568 92.266666-92.266666-61.568-61.568-92.266666 92.266666z m274.496-30.698666L185.898667 1020.330667 3.669333 838.101333l578.432-578.432 182.229334 182.229334zM857.664 95.36l60.330667 60.330667-120.682667 120.682666-60.330667-60.330666 120.682667-120.682667zM483.114667 228.48l-60.330667 60.352-120.682667-120.682667 60.352-60.330666 120.661334 120.661333zM640 170.666667h-85.333333V0h85.333333v170.666667z m265.493333 480.213333l-60.330666 60.352-120.682667-120.682667 60.352-60.330666 120.661333 120.661333zM1002.666667 362.666667v85.333333h-170.666667v-85.333333h170.666667z" p-id="15022" fill="#000000"></path></svg>