<?xml version="1.0" standalone="no"?><!DOCTYPE svg PUBLIC "-//W3C//DTD SVG 1.1//EN" "http://www.w3.org/Graphics/SVG/1.1/DTD/svg11.dtd"><svg t="1660273794078" class="icon" viewBox="0 0 1024 1024" version="1.1" xmlns="http://www.w3.org/2000/svg" p-id="6883" xmlns:xlink="http://www.w3.org/1999/xlink" width="48" height="48"><defs><style type="text/css"></style></defs><path d="M512.5 363.1c82.8 0 150-67.2 150-150s-67.2-150-150-150-150 67.2-150 150 67.2 150 150 150zM808.2 959.1c82.8 0 150-67.2 150-150s-67.2-150-150-150-150 67.2-150 150c0 82.9 67.2 150 150 150zM214 960.1c82.8 0 150-67.2 150-150s-67.2-150-150-150-150 67.2-150 150c0 82.9 67.2 150 150 150zM726.5 213.1c0 15.9-1.7 31.6-5.2 46.9 5.8 5.1 11.5 10.4 17 15.9 30.9 30.9 55.1 66.8 72 106.8 17.5 41.4 26.4 85.4 26.4 130.8 0 28.1-3.4 55.7-10.2 82.4 21.4 1.8 42.3 6.8 62.2 15 7.8-31.2 11.9-63.8 11.9-97.4 0-138.2-70.1-260-176.6-331.8 1.7 10.3 2.5 20.8 2.5 31.4zM611 892.5c-7.7-18.2-12.8-37.1-15.2-56.6-30.7 9-62.5 13.6-95.1 13.6-25.5 0-50.6-2.8-75-8.4-2.6 18-7.5 35.5-14.6 52.3-1.3 3-2.7 6.1-4.1 9 30.1 7.2 61.4 11 93.7 11 39 0 76.8-5.6 112.5-16-0.7-1.6-1.4-3.3-2.2-4.9zM130.7 613c14.6-6.2 29.7-10.7 45.2-13.5-7.4-27.9-11.1-56.6-11.1-86 0-45.4 8.9-89.4 26.4-130.8 16.9-40 41.2-75.9 72-106.8 11.8-11.8 24.3-22.6 37.5-32.4-1.4-10-2.2-20.2-2.2-30.5 0-16.2 1.8-32.2 5.4-47.8-121.3 68.8-203.1 199-203.1 348.3 0 37 5 72.8 14.4 106.8 5.1-2.7 10.2-5.1 15.5-7.3z" fill="#000000" p-id="6884"></path></svg>