<?xml version="1.0" standalone="no"?><!DOCTYPE svg PUBLIC "-//W3C//DTD SVG 1.1//EN" "http://www.w3.org/Graphics/SVG/1.1/DTD/svg11.dtd"><svg t="1659797929653" class="icon" viewBox="0 0 1024 1024" version="1.1" xmlns="http://www.w3.org/2000/svg" p-id="10766" xmlns:xlink="http://www.w3.org/1999/xlink" width="48" height="48"><defs><style type="text/css"></style></defs><path d="M992 544h-96a32 32 0 0 1 0-64h96a32 32 0 0 1 0 64z m-190.688-276.032a32 32 0 0 1-45.248-45.248L828.8 149.984A32 32 0 0 1 874.048 195.2zM512 749.728A237.728 237.728 0 1 1 749.728 512 237.984 237.984 0 0 1 512 749.728z m0-411.424A173.728 173.728 0 1 0 685.728 512 173.92 173.92 0 0 0 512 338.272zM512 160a32 32 0 0 1-32-32V32a32 32 0 0 1 64 0v96a32 32 0 0 1-32 32zM245.312 277.344a32 32 0 0 1-22.624-9.376L149.984 195.2A32 32 0 1 1 195.2 149.984l72.704 72.768a32 32 0 0 1-22.592 54.592zM160 512a32 32 0 0 1-32 32H32a32 32 0 0 1 0-64h96a32 32 0 0 1 32 32z m62.688 244.064a32 32 0 0 1 45.248 45.248L195.2 874.08A32 32 0 1 1 149.984 828.8zM512 864a32 32 0 0 1 32 32v96a32 32 0 0 1-64 0v-96a32 32 0 0 1 32-32z m289.312-107.936l72.736 72.736a32 32 0 1 1-45.248 45.28l-72.704-72.768a32 32 0 0 1 45.216-45.248z" p-id="10767"></path></svg>