<?xml version="1.0" standalone="no"?><!DOCTYPE svg PUBLIC "-//W3C//DTD SVG 1.1//EN" "http://www.w3.org/Graphics/SVG/1.1/DTD/svg11.dtd"><svg t="1661231243844" class="icon" viewBox="0 0 1024 1024" version="1.1" xmlns="http://www.w3.org/2000/svg" p-id="3617" xmlns:xlink="http://www.w3.org/1999/xlink" width="48" height="48"><defs><style type="text/css"></style></defs><path d="M281.5 757.5h-79.7c-28.6 0-51.9-23.2-51.9-51.9v-493h-13.1c-21.5 0-38.9-17.4-38.9-38.9s17.4-38.9 38.9-38.9h751.9c21.5 0 38.9 17.4 38.9 38.9s-17.4 38.9-38.9 38.9h-12.9v493c0 28.6-23.2 51.9-51.9 51.9h-86.4l45.1 45.1c19.6 20.9 18.5 53.7-2.4 73.3-20 18.7-51 18.7-71 0l-110-110c-2.5-2.6-4.8-5.4-6.8-8.4h-166c-2 3-4.2 5.8-6.8 8.4l-110 109.9c-19.9 20.6-52.7 21.2-73.3 1.3-20.6-19.9-21.2-52.7-1.3-73.3 0.4-0.4 0.8-0.9 1.3-1.3l45.1-45.1 0.1 0.1z m-70.4-531.2V693h602.3V226.3H211.1z" p-id="3618" fill="#000000"></path><path d="M428.9 302.7l218.7 132.6c8.3 5 8.3 17.1 0 22.2L428.9 590c-8.6 5.2-19.7-1-19.7-11.1V313.8c0-10.1 11.1-16.3 19.7-11.1z" p-id="3619" fill="#000000"></path></svg>