<?xml version="1.0" standalone="no"?><!DOCTYPE svg PUBLIC "-//W3C//DTD SVG 1.1//EN" "http://www.w3.org/Graphics/SVG/1.1/DTD/svg11.dtd"><svg t="1659851520105" class="icon" viewBox="0 0 1024 1024" version="1.1" xmlns="http://www.w3.org/2000/svg" p-id="25245" xmlns:xlink="http://www.w3.org/1999/xlink" width="48" height="48"><defs><style type="text/css"></style></defs><path d="M938.667 443.733V140.8c0-25.6-21.334-46.933-46.934-46.933H576c-25.6 0-46.933 21.333-46.933 46.933v302.933c0 25.6 21.333 46.934 46.933 46.934h315.733c25.6 0 46.934-21.334 46.934-46.934z m-806.4 93.867c-25.6 0-46.934 21.333-46.934 46.933v302.934c0 25.6 21.334 46.933 46.934 46.933H448c25.6 0 46.933-21.333 46.933-46.933V584.533c0-25.6-21.333-46.933-46.933-46.933H132.267zM307.2 332.8h-46.933c0-81.067 68.266-149.333 149.333-149.333h17.067c12.8 0 21.333-8.534 21.333-21.334v-55.466c0-12.8-8.533-21.334-21.333-21.334H409.6c-136.533 0-247.467 110.934-247.467 247.467h-55.466c-8.534 0-12.8 8.533-12.8 17.067 0 4.266 0 4.266 4.266 8.533L192 465.067c8.533 8.533 21.333 8.533 29.867 0L315.733 358.4c4.267-4.267 4.267-12.8 0-17.067-4.266-4.266-4.266-8.533-8.533-8.533z m409.6 358.4h46.933c0 81.067-68.266 149.333-149.333 149.333h-17.067c-12.8 0-21.333 8.534-21.333 21.334V921.6c0 12.8 8.533 21.333 21.333 21.333H614.4c136.533 0 247.467-110.933 247.467-247.466h55.466c8.534 0 12.8-4.267 12.8-12.8 0-4.267 0-4.267-4.266-8.534L832 567.467c-8.533-8.534-21.333-8.534-29.867 0l-93.866 106.666c-4.267 4.267-4.267 12.8 0 17.067 0-4.267 4.266 0 8.533 0z" p-id="25246" fill="#000000"></path></svg>