<?xml version="1.0" standalone="no"?><!DOCTYPE svg PUBLIC "-//W3C//DTD SVG 1.1//EN" "http://www.w3.org/Graphics/SVG/1.1/DTD/svg11.dtd"><svg t="1656504015017" class="icon" viewBox="0 0 1028 1024" version="1.1" xmlns="http://www.w3.org/2000/svg" p-id="1469" xmlns:xlink="http://www.w3.org/1999/xlink" width="48.1875" height="48"><defs><style type="text/css"></style></defs><path d="M514.133333 509.866667m-256 0a256 256 0 1 0 512 0 256 256 0 1 0-512 0Z" fill="#FFC445" p-id="1470"></path><path d="M514.133333 170.666667c-19.2 0-32-14.933333-32-32V29.866667c0-17.066667 12.8-29.866667 29.866667-29.866667h2.133333c17.066667 0 32 14.933333 32 32v108.8c0 14.933333-14.933333 29.866667-32 29.866667zM514.133333 1024c-19.2 0-32-14.933333-32-32v-108.8c0-17.066667 14.933333-32 32-32h2.133334c17.066667 0 32 14.933333 32 32v108.8c-2.133333 17.066667-17.066667 32-34.133334 32zM853.333333 509.866667c0-19.2 14.933333-32 32-32h108.8c17.066667 0 32 14.933333 32 32v2.133333c0 17.066667-14.933333 32-32 32h-108.8c-17.066667-2.133333-32-17.066667-32-34.133333zM0 509.866667c0-19.2 14.933333-32 32-32h108.8c17.066667 0 32 14.933333 32 32v2.133333c0 17.066667-14.933333 32-32 32H32c-17.066667-2.133333-32-17.066667-32-34.133333zM742.4 247.466667c-12.8-12.8-12.8-32-2.133333-44.8l76.8-76.8c12.8-12.8 32-12.8 44.8 0V128c12.8 12.8 12.8 32 0 44.8l-76.8 76.8c-10.666667 10.666667-32 10.666667-42.666667-2.133333zM138.666667 851.2c-12.8-12.8-12.8-34.133333-2.133334-44.8l76.8-76.8c12.8-12.8 32-12.8 44.8 0l2.133334 2.133333c12.8 12.8 12.8 32 0 44.8L183.466667 853.333333c-12.8 10.666667-32 10.666667-44.8-2.133333zM740.266667 727.466667c12.8-12.8 34.133333-12.8 44.8-2.133334l76.8 76.8c12.8 12.8 12.8 32 0 44.8l-2.133334 2.133334c-12.8 12.8-32 12.8-44.8 0l-76.8-76.8c-10.666667-12.8-10.666667-32 2.133334-44.8zM136.533333 123.733333c12.8-12.8 34.133333-12.8 44.8-2.133333l76.8 76.8c12.8 12.8 12.8 32 0 44.8l-2.133333 2.133333c-12.8 12.8-32 12.8-44.8 0L136.533333 168.533333c-10.666667-12.8-10.666667-32 0-44.8z" fill="#FFC445" p-id="1471"></path></svg>