<?xml version="1.0" standalone="no"?><!DOCTYPE svg PUBLIC "-//W3C//DTD SVG 1.1//EN" "http://www.w3.org/Graphics/SVG/1.1/DTD/svg11.dtd"><svg t="1660048737246" class="icon" viewBox="0 0 1024 1024" version="1.1" xmlns="http://www.w3.org/2000/svg" p-id="3441" xmlns:xlink="http://www.w3.org/1999/xlink" width="48" height="48"><defs><style type="text/css"></style></defs><path d="M512 512m-450 0a450 450 0 1 0 900 0 450 450 0 1 0-900 0Z" fill="#11BB82" p-id="3442"></path><path d="M436.4 630.94c-20.73 0-37.5-16.79-37.5-37.5V430.57c0-20.71 16.77-37.5 37.5-37.5s37.5 16.79 37.5 37.5v162.87c0 20.71-16.78 37.5-37.5 37.5zM283.98 606.42c-20.73 0-37.5-16.79-37.5-37.5v-68.5c0-20.71 16.77-37.5 37.5-37.5s37.5 16.79 37.5 37.5v68.5c0 20.71-16.77 37.5-37.5 37.5zM588.81 727.77c-20.73 0-37.5-16.79-37.5-37.5V333.74c0-20.71 16.77-37.5 37.5-37.5s37.5 16.79 37.5 37.5v356.52c0 20.72-16.77 37.51-37.5 37.51zM741.27 630.94c-20.73 0-37.5-16.79-37.5-37.5V430.57c0-20.71 16.77-37.5 37.5-37.5s37.5 16.79 37.5 37.5v162.87c0 20.71-16.78 37.5-37.5 37.5z" fill="#FFFFFF" p-id="3443"></path></svg>